<svg class="lds-gear" width="200px"  height="200px"  xmlns="http://www.w3.org/2000/svg" xmlns:xlink="http://www.w3.org/1999/xlink" viewBox="0 0 100 100" preserveAspectRatio="xMidYMid" style="background: none;"><g transform="translate(50 50)">
<g transform="rotate(215.105)">
<animateTransform attributeName="transform" type="rotate" values="0;360" keyTimes="0;1" dur="7s" repeatCount="indefinite"></animateTransform><path d="M37.43995192304605 -6.5 L47.43995192304605 -6.5 L47.43995192304605 6.5 L37.43995192304605 6.5 A38 38 0 0 1 35.010657137753455 14.773418249771213 L35.010657137753455 14.773418249771213 L43.42319246606527 20.17982642432719 L36.39486183914249 31.116122351132546 L27.982326510830685 25.709714176576572 A38 38 0 0 1 21.46572608470655 31.35638058922536 L21.46572608470655 31.35638058922536 L25.619876214725416 40.45270054277054 L13.794660275116678 45.85309571179506 L9.640510145097814 36.75677575824988 A38 38 0 0 1 1.1055786693381964 37.9839136451986 L1.1055786693381964 37.9839136451986 L-0.317569713394654 47.88212806400793 L-13.185248457846777 46.032035166455216 L-11.762100075113926 36.13382074764589 A38 38 0 0 1 -19.60558216189945 32.5518225003303 L-19.60558216189945 32.5518225003303 L-26.1541895013523 40.109318243872885 L-35.97893396795766 31.59612870258418 L-29.430326628504805 24.0386329590416 A38 38 0 0 1 -34.09210918315799 16.7847577117942 L-34.09210918315799 16.7847577117942 L-43.687038919302964 19.602083280208497 L-47.349562158241554 7.128674623220032 L-37.75463242209658 4.311349054805735 A38 38 0 0 1 -37.75463242209658 -4.311349054805725 L-37.75463242209658 -4.311349054805725 L-47.349562158241554 -7.128674623220018 L-43.68703891930297 -19.602083280208483 L-34.092109183157994 -16.78475771179419 A38 38 0 0 1 -29.430326628504808 -24.038632959041593 L-29.430326628504808 -24.038632959041593 L-35.97893396795766 -31.596128702584174 L-26.154189501352292 -40.109318243872885 L-19.60558216189944 -32.5518225003303 A38 38 0 0 1 -11.762100075113935 -36.13382074764589 L-11.762100075113935 -36.13382074764589 L-13.185248457846788 -46.032035166455216 L-0.31756971339466555 -47.88212806400792 L1.105578669338187 -37.9839136451986 A38 38 0 0 1 9.640510145097794 -36.75677575824989 L9.640510145097794 -36.75677575824989 L13.794660275116655 -45.85309571179507 L25.61987621472539 -40.45270054277056 L21.46572608470653 -31.35638058922537 A38 38 0 0 1 27.98232651083069 -25.70971417657657 L27.98232651083069 -25.70971417657657 L36.3948618391425 -31.116122351132546 L43.42319246606527 -20.17982642432719 L35.010657137753455 -14.773418249771213 A38 38 0 0 1 37.43995192304605 -6.500000000000007 M0 -20A20 20 0 1 0 0 20 A20 20 0 1 0 0 -20" fill="#5073B8"></path></g></g></svg>